<svg width="58" height="43" viewBox="0 0 58 43" fill="none" xmlns="http://www.w3.org/2000/svg">
<path d="M51.5004 6.125H51.5H47.75C47.5179 6.125 47.2954 6.03281 47.1313 5.86872C46.9672 5.70462 46.875 5.48207 46.875 5.25V5.2495C46.8735 4.15606 46.4385 3.10782 45.6654 2.33465C44.8922 1.56147 43.8439 1.12646 42.7505 1.125H42.75L27.75 1.125L27.7495 1.125C26.6561 1.12646 25.6078 1.56147 24.8346 2.33465C24.0615 3.10782 23.6265 4.15606 23.625 5.2495V5.25C23.625 5.48207 23.5328 5.70462 23.3687 5.86872C23.2046 6.03281 22.9821 6.125 22.75 6.125H19.375V4V3.625H19H9H8.625V4V6.125H6.5H6.49963C5.07462 6.12642 3.70839 6.69313 2.70076 7.70076C1.69313 8.70839 1.12642 10.0746 1.125 11.4996V11.5L1.125 36.5L1.125 36.5004C1.12642 37.9254 1.69313 39.2916 2.70076 40.2992C3.70839 41.3069 5.07462 41.8736 6.49963 41.875H6.5H51.5H51.5004C52.9254 41.8736 54.2916 41.3069 55.2992 40.2992C56.3069 39.2916 56.8736 37.9254 56.875 36.5004V36.5V11.5V11.4996C56.8736 10.0746 56.3069 8.70839 55.2992 7.70076C54.2916 6.69313 52.9254 6.12642 51.5004 6.125ZM11.875 6.875H16.125V9V9.375H16.5L22.75 9.375L22.7505 9.375C23.8439 9.37354 24.8922 8.93853 25.6654 8.16535C26.4385 7.39218 26.8735 6.34394 26.875 5.2505V5.25C26.875 5.01793 26.9672 4.79538 27.1313 4.63128C27.2954 4.46719 27.5179 4.375 27.75 4.375H42.75C42.9821 4.375 43.2046 4.46719 43.3687 4.63128C43.5328 4.79538 43.625 5.01793 43.625 5.25V5.2505C43.6265 6.34394 44.0615 7.39218 44.8346 8.16535C45.6078 8.93853 46.6561 9.37354 47.7495 9.375H47.75H51.4996C52.0631 9.37556 52.6034 9.59967 53.0019 9.99813C53.4003 10.3966 53.6244 10.9369 53.625 11.5004V36.4996C53.6244 37.0631 53.4003 37.6034 53.0019 38.0019C52.6034 38.4003 52.0631 38.6244 51.4996 38.625H6.50037C5.93686 38.6244 5.39659 38.4003 4.99813 38.0019C4.59972 37.6035 4.37562 37.0633 4.375 36.4999C4.375 36.4998 4.375 36.4997 4.375 36.4996V11.5004C4.375 11.5003 4.375 11.5002 4.375 11.5001C4.37562 10.9367 4.59972 10.3965 4.99813 9.99813C5.39659 9.59967 5.93686 9.37556 6.50037 9.375H11.5H11.875V9V6.875ZM19.5 24.375H19.8762L19.875 23.9988C19.8685 22.0152 20.5103 20.0837 21.7028 18.4985C22.8952 16.9133 24.5729 15.7612 26.4806 15.2175C28.3882 14.6737 30.4213 14.7682 32.2703 15.4866C33.9049 16.1216 35.3165 17.2134 36.3406 18.625H34H33.625V19V21.5V21.875H34H41.5H41.875V21.5V14V13.625H41.5H39H38.625V14V16.2401C37.212 14.4833 35.3401 13.1401 33.2067 12.3662C30.7061 11.4591 27.9796 11.3825 25.432 12.148C22.8844 12.9134 20.6516 14.48 19.065 16.6152C17.4785 18.7503 16.6228 21.3402 16.625 24.0003L16.6253 24.375H17H19.5ZM38.5 23.625H38.1238L38.125 24.0012C38.1315 25.9848 37.4897 27.9163 36.2972 29.5015C35.1048 31.0867 33.4271 32.2388 31.5194 32.7825C29.6118 33.3263 27.5787 33.2318 25.7297 32.5134C24.0951 31.8784 22.6835 30.7866 21.6594 29.375H24H24.375V29V26.5V26.125H24H16.5H16.125V26.5V34V34.375H16.5H19H19.375V34V31.7599C20.788 33.5167 22.6599 34.8599 24.7933 35.6338C27.2939 36.5409 30.0204 36.6175 32.568 35.852C35.1156 35.0866 37.3484 33.52 38.935 31.3848C40.5215 29.2497 41.3772 26.6598 41.375 23.9997L41.3747 23.625H41H38.5Z" fill="white" stroke="#D83434" stroke-width="0.75"/>
</svg>
